<mxfile host="app.diagrams.net" modified="2023-04-05T22:58:03.563Z" agent="Mozilla/5.0 (Windows NT 10.0; Win64; x64) AppleWebKit/537.36 (KHTML, like Gecko) Chrome/112.0.0.0 Safari/537.36 Config/96.2.8981.82" version="21.1.1" etag="TN7TZZjG7ZcbBXWPxLou" type="github">
  <diagram name="Page-1" id="FkdXeDvfEsBKhogp4X-z">
    <mxGraphModel>
      <root>
        <mxCell id="0" />
        <mxCell id="1" parent="0" />
      </root>
    </mxGraphModel>
  </diagram>
</mxfile>
